# xmcd
#
# Track frame offsets:
#	150
#	16475
#	30957
#	45440
#	65585
#	79365
#	94250
#	110967
#	127167
#	143165
#	155937
#
# Disc length: 2255 seconds
#
# Revision: 0
# Processed by: cddbd v1.4PL0 Copyright (c) Steve Scherf et al.
# Submitted via: dBpowerAMP V4.0
#
DISCID=9d08cd0b
DTITLE=Little Sonny - Black and Blue
DYEAR=1971
DGENRE=Blues
TTITLE0=Hung Up
TTITLE1=Sonny's Fever
TTITLE2=You Got A Good Thing
TTITLE3=A Women Named Trouble
TTITLE4=Honest I Do
TTITLE5=Wade In The Water ( instrumental )
TTITLE6=Paying Through The Nose
TTITLE7=Memphis B-K ( instrumental )
TTITLE8=Where Women Got Meat On Their Bones
TTITLE9=I Found Love
TTITLE10=They Want Money
EXTD=
EXTT0=
EXTT1=
EXTT2=
EXTT3=
EXTT4=
EXTT5=
EXTT6=
EXTT7=
EXTT8=
EXTT9=
EXTT10=
PLAYORDER=
